<svg xmlns="http://www.w3.org/2000/svg" width="256" height="256" viewBox="0 0 100 100"><rect width="100" height="100" rx="0" fill="#2e6aac"></rect><path fill="#fff" d="M30.27 70.70L24.30 70.70L12.29 36.12L12.06 36.12Q12.55 43.83 12.55 50.57L12.55 50.57L12.55 70.70L6.40 70.70L6.40 29.30L15.94 29.30L27.44 62.23L27.61 62.23L39.45 29.30L49.02 29.30L49.02 70.70L42.51 70.70L42.51 50.23Q42.51 47.14 42.67 42.18Q42.82 37.23 42.93 36.18L42.93 36.18L42.71 36.18L30.27 70.70ZM93.60 49.60L93.60 49.60Q93.60 59.86 87.91 65.28Q82.21 70.70 71.51 70.70L71.51 70.70L59.93 70.70L59.93 29.30L72.73 29.30Q82.61 29.30 88.10 34.62Q93.60 39.95 93.60 49.60ZM86.46 49.83L86.46 49.83Q86.46 34.96 72.56 34.96L72.56 34.96L66.69 34.96L66.69 65.01L71.51 65.01Q86.46 65.01 86.46 49.83Z"></path></svg>
